<?xml version="1.0" encoding="utf-8"?>
<!-- Generator: Adobe Illustrator 18.0.0, SVG Export Plug-In . SVG Version: 6.00 Build 0)  -->
<!DOCTYPE svg PUBLIC "-//W3C//DTD SVG 1.1//EN" "http://www.w3.org/Graphics/SVG/1.1/DTD/svg11.dtd">
<svg version="1.1" id="レイヤー_1" xmlns="http://www.w3.org/2000/svg" xmlns:xlink="http://www.w3.org/1999/xlink" x="0px"
	 y="0px" viewBox="0 0 340.2 113.4" enable-background="new 0 0 340.2 113.4" xml:space="preserve">
<g opacity="0.9">
	<path fill="#EE9FB9" d="M4.4,71.1c0-6.3,0-12.6,0-18.9c0.3-0.5,0.7-0.7,1.2-0.8c3.8-1.1,7.5-2.3,11.2-3.5c0.6-0.2,1.2-0.5,1.8,0
		c0.1,0.1,0.2,0.3,0.2,0.5c0.1,2.4,0.2,4.7-0.1,7.1c-0.1,0.4-0.1,0.7-0.1,1.1c0.2,5.7-0.4,11.3-0.3,17c0,2-0.3,4-0.3,6
		c0,0.2-0.1,0.3-0.1,0.5c-0.1,0.1-0.2,0.2-0.3,0.3c-0.6,0.1-1-0.3-1.4-0.5c-3.7-2.4-7.2-5-10.9-7.5C5,71.9,4.7,71.5,4.4,71.1z"/>
	<path fill="#F9D1CA" d="M37.1,18.7c2.4,0,4.8,0,7.2,0c0.6,0.6,0.7,1.3,0.8,2c0.5,4.5,1.5,8.9,2.1,13.3c0.1,0.9,0.7,2-0.3,2.8
		c-2.3,0.5-4.6-0.1-6.9-0.2c-3.7-0.2-7.3-0.5-11-0.7c-4.3-0.2-8.5-0.6-12.8-0.9c-0.2,0-0.5-0.1-0.7-0.2c-0.7-0.8,0.1-1.1,0.6-1.4
		c2.6-1.9,5.2-3.8,7.8-5.6c3.9-2.7,7.7-5.5,11.6-8.2C35.9,19.2,36.5,18.9,37.1,18.7z"/>
	<path fill="#E48EAF" d="M188.2,18.7c5.4,0,10.9,0,16.3,0c0.5,0.5,0.6,1.1,0.6,1.8c0.2,4.2,0.5,8.5,0.8,12.7c0,0.5-0.1,0.9-0.5,1.2
		c-0.4,0.3-0.8,0.2-1.2,0.2c-10.3-1.6-20.6-3-30.9-4.6c-0.1-0.1-0.3-0.2-0.4-0.3c-0.1-0.1,0-0.3,0.1-0.4c4.5-3.2,9-6.5,13.5-9.7
		C187.1,19.2,187.6,18.9,188.2,18.7z"/>
	<path fill="#AE6D9F" d="M277.8,18.7c6.4,0,12.7,0,19.1,0c1.2,1.4,1.6,3.2,2.2,4.8c1.5,4.2,3.3,8.3,4.8,12.5c0.2,0.5,0.5,1,0.3,1.6
		c-0.7,0.4-1.3-0.1-1.8-0.3c-7.7-3.3-15.3-6.6-23-9.9c-1.6-0.7-3.3-1.4-4.9-2.1c-0.5-0.2-1-0.3-1.2-0.9c-0.1-0.7,0.4-1.1,0.8-1.5
		C275.2,21.3,276.2,19.8,277.8,18.7z"/>
	<path fill="#F7C2C6" d="M98.7,18.7c5.5,0,11.1,0,16.6,0c0.5,0.5,0.5,1.2,0.4,1.8c-0.3,2.4-0.3,4.9-0.6,7.3
		c-0.3,2.2-0.1,4.4-0.6,6.6c-0.1,0.2-0.2,0.4-0.4,0.6c-2.2,0-4.2-0.8-6.3-1.2c-5.9-1.3-11.8-2.6-17.7-4c-0.4-0.1-0.7-0.2-1-0.4
		c-0.1-0.1-0.2-0.2-0.3-0.3c0-0.1,0-0.1,0-0.2c0.1-0.3,0.2-0.5,0.4-0.7c2.9-2.8,5.5-5.9,8.4-8.6C97.8,19.2,98.3,18.9,98.7,18.7z"/>
	<path fill="#CB78A7" d="M235.8,18.7c5.6,0,11.2,0,16.9,0c0.6,0.6,0.6,1.4,0.7,2.2c0.4,3.1,0.9,6.2,1.1,9.3c0,0.2-0.1,0.3-0.2,0.5
		c-0.1,0.1-0.3,0.2-0.5,0.2c-3-0.1-6-0.1-8.9-0.2c-4.8-0.2-9.6-0.4-14.5-0.5c-1.4,0-2.8-0.1-4.1-0.4c-0.9-0.3-0.5-0.8-0.1-1.2
		c0.8-1,1.8-1.9,2.6-2.8c1.9-2.1,3.8-4.3,5.8-6.2C235,19.1,235.4,18.9,235.8,18.7z"/>
	<path fill="#A46E9E" d="M304,37.6c-2.2-5.8-4.5-11.6-6.7-17.4c-0.2-0.5-0.3-1-0.5-1.5c5.4,0,10.9,0,16.3,0c2.6,1.4,4.9,3.3,7.3,5
		c0.1,0.1,0.2,0.2,0.2,0.3c0,0.1,0,0.3-0.1,0.4c-3.7,3.2-7.4,6.3-11.1,9.4c-1.4,1.2-2.7,2.3-4.1,3.4c-0.4,0.3-0.7,0.7-1.2,0.6
		C304.1,37.7,304.1,37.6,304,37.6z"/>
	<path fill="#DB82AB" d="M205.4,34.3c0.5-1.8,0-3.6-0.1-5.4c-0.2-2.1-0.1-4.2-0.4-6.2c-0.2-1.3-0.3-2.7-0.3-4c3.5,0,7,0,10.5,0
		c1.2,0.6,2.1,1.6,2.9,2.6c2.1,2.4,4.4,4.6,6.6,6.8c0.4,0.4,1,0.8,0.7,1.5c-0.2,0.3-0.5,0.4-0.8,0.4c-6.2,1.5-12.3,3.1-18.5,4.5
		c-0.2,0-0.3,0-0.4-0.1C205.5,34.4,205.4,34.3,205.4,34.3z"/>
	<path fill="#F9CEC8" d="M47,36.5c-0.2-1.6-0.3-3.2-0.6-4.8c-0.6-3.8-1.3-7.5-1.8-11.3c-0.1-0.6-0.5-1.2-0.4-1.8c2.1,0,4.2,0,6.4,0
		c3.4,1.7,6.6,4,9.8,6c1.2,0.8,2.6,1.3,3.6,2.5c0,0.6-0.4,0.8-0.8,1c-4.8,2.7-9.7,5.4-14.5,8c-0.4,0.2-0.9,0.5-1.4,0.4
		C47.1,36.6,47.1,36.5,47,36.5z"/>
	<path fill="#F2A4B7" d="M173,29.4c0,0.1,0,0.2,0,0.3c0,0.1-0.1,0.1-0.1,0.2c-2.2,0.9-4.5,1.3-6.7,1.8c-3.3,0.8-6.6,1.6-9.9,2.4
		c-0.6,0.1-1.1,0.4-1.8,0.2c-0.2-0.1-0.4-0.2-0.4-0.5c-0.1-2.4-0.7-4.7-1.1-7c-0.4-2.1-0.6-4.1-1-6.2c-0.1-0.6-0.2-1.3,0.1-1.9
		c2.8,0,5.5,0,8.3,0c2,1.3,3.7,3,5.5,4.5C168.3,25.1,170.8,27.1,173,29.4z"/>
	<path fill="#FCE2D9" d="M37.1,18.7c-4.7,3.3-9.4,6.7-14.1,10c-2.6,1.9-5.2,3.7-7.8,5.6c-0.1,0.1-0.2,0.2-0.4,0.2
		c-0.3,0-0.5-0.2-0.6-0.5c0.2-2.4-0.2-4.7-0.3-7.1c-0.1-2.3-0.4-4.5-0.6-6.8c0-0.5-0.2-1,0.2-1.4C21.4,18.7,29.2,18.7,37.1,18.7z"/>
	<path fill="#F5B6C0" d="M125.8,18.7c3.4,0,6.8,0,10.2,0c0.6,0.8,0.5,1.7,0.6,2.6c0.1,2,0.4,4,0.5,5.9c0,0.2-0.1,0.3-0.1,0.4
		c-0.3,0.5-0.8,0.6-1.2,0.8c-6.5,2.1-13.1,4.1-19.7,6.2c-0.5,0.2-1,0.3-1.5,0.1c-0.5-0.4-0.2-0.9,0.1-1.2c3.6-4.9,7.1-9.9,10.9-14.7
		C125.6,18.8,125.7,18.7,125.8,18.7z"/>
	<path fill="#F3ABBA" d="M136.8,27.7c0-0.1,0-0.2,0-0.3c2.3-3,4.5-6.1,7.2-8.8c2.7,0,5.3,0,8,0c0.4,2.1,0.7,4.3,1.1,6.4
		c0.4,2.4,0.8,4.7,1.2,7.1c0.1,0.6,0.3,1.1-0.1,1.7c-0.4,0.3-0.8,0.2-1.2,0c-5-1.8-10-3.5-14.9-5.3c-0.4-0.2-0.9-0.3-1.2-0.6
		C136.9,27.8,136.9,27.8,136.8,27.7z"/>
	<path fill="#F8CCCA" d="M88.7,28.8c0,0.1,0,0.2,0,0.3c-0.1,0.1-0.3,0.2-0.4,0.3c-1.5,0.2-3-0.1-4.5-0.2c-5.7-0.4-11.4-1-17.2-1.3
		c-0.8,0-1.6-0.1-2.3-0.4c-0.2-0.1-0.3-0.2-0.3-0.4c-0.3-0.5-0.3-1-0.3-1.5c0-2,0.4-3.9,0.3-5.9c0-0.4,0.1-0.7,0.4-1
		c3.9,0,7.7,0,11.6,0c1.9,1,3.3,2.5,5,3.8C83.6,24.6,86.1,26.8,88.7,28.8z"/>
	<path fill="#C176A6" d="M254.3,30.2c-0.6-1.4-0.5-3-0.7-4.5c-0.4-2.3-0.6-4.7-0.9-7c4.8,0,9.6,0,14.4,0c2,1.5,3.8,3.1,5.5,4.9
		c0.3,0.3,0.6,0.6,0.3,1.1c-0.8,0.7-1.9,0.9-2.9,1.2c-4.6,1.3-9,3-13.6,4.3C255.6,30.3,255,30.7,254.3,30.2z"/>
	<path fill="#F6C0C8" d="M18.5,47.7c-3,0.9-6.1,1.9-9.1,2.8c-1.7,0.5-3.3,1.1-4.9,1.6c0-3.1,0-6.2,0-9.3c1.3-1.7,3.1-2.8,4.7-4.1
		c1.4-1.2,2.8-2.3,4.3-3.5c0.5-0.4,0.9-0.9,1.7-0.5c1,2.5,1.5,5.1,2.3,7.7c0.5,1.6,0.9,3.2,1.5,4.8C18.9,47.5,18.8,47.6,18.5,47.7z"
		/>
	<path fill="#BA73A5" d="M17.4,80.1c0.1,0,0.2,0,0.3,0c0.1,0.1,0.2,0.2,0.2,0.4c-0.6,4.6-1.5,9.2-2.5,13.7c-0.1,0.1-0.2,0.2-0.3,0.3
		c-0.5,0.2-0.9,0.1-1.3-0.2c-3-2-6-4-8.9-6.1c-0.2-0.1-0.3-0.3-0.5-0.5c0-2.8,0-5.7,0-8.5c0.5-0.4,1.1-0.4,1.7-0.4
		c3.1,0.2,6.1,0.5,9.2,0.6C16.1,79.5,16.7,79.9,17.4,80.1z"/>
	<path fill="#FCE4DC" d="M13.6,18.7c0.3,3.2,0.6,6.3,0.9,9.5c0.1,1.7,0.3,3.4,0.4,5.1c0,0.4-0.2,0.6-0.5,0.7
		c-0.4,0.3-0.8,0.2-1.2,0.1C10.6,33,8,31.9,5.3,30.8c-0.4-0.1-0.6-0.4-0.9-0.7c0-3.6,0-7.2,0-10.8c0-0.6,0.1-0.7,0.7-0.7
		C7.9,18.7,10.8,18.7,13.6,18.7z"/>
	<path fill="#FFFFFF" d="M336.1,18.7c0.6,0.3,0.3,0.8,0.3,1.2c0,25.5,0,50.9,0,76.4c0,1.5,0,2.9,0,4.4c0,0.5-0.1,0.6-0.6,0.6
		c-0.2,0-0.5,0-0.7,0c-109.8,0-219.6,0-329.4,0c-0.4,0-0.9,0.3-1.2-0.3c0.4-0.4,1-0.4,1.5-0.4c1.9,0,3.7,0,5.6,0c1.3,0,2.6,0,4,0
		c4.1-0.1,8.2,0,12.3,0c1.6-0.1,3.1,0,4.7,0c0.9,0,1.9,0,2.8,0c1.1,0,2.3,0,3.4,0c8.4-0.1,16.8-0.1,25.3,0c1.9,0,3.7,0,5.6,0
		c5.7,0,11.3-0.1,17,0c0.4-0.1,0.9,0,1.3,0c7.8,0,15.7-0.1,23.5,0c0.5,0,1.1-0.1,1.6,0c8.5-0.1,17-0.1,25.5,0c1.1,0,2.1,0,3.2,0
		c1.6,0,3.2,0,4.7,0c2.7,0,5.3-0.1,8,0c3.8,0,7.5,0,11.3,0c3.2,0,6.4-0.1,9.6,0c1.5,0,3,0,4.5,0c6.5-0.1,13,0,19.5,0
		c2.1,0.1,4.2-0.1,6.4,0c0.8,0.1,1.6,0,2.4,0c5.6-0.1,11.2-0.1,16.8,0c6.4-0.1,12.7-0.1,19.1,0c5.7,0,11.4,0,17.1,0
		c2.2,0,4.5-0.1,6.7,0c2.5-0.1,5,0,7.5,0c3.9,0,7.7,0,11.6,0c4.1,0,8.3-0.1,12.4,0c4.7-0.1,9.4,0,14.1,0c2.9,0,5.7-0.1,8.6,0
		c4,0,8.1,0,12.1,0c0.4,0,0.8,0.1,1.2-0.2c0.5-0.6,0.3-1.2,0.3-1.8c0-3.9,0-7.9,0-11.9c0-1.8,0-3.5,0-5.3c-0.1-6.3,0-12.6,0-18.8
		c0-3,0-6.1,0-9.1c-0.1-3.5,0-7,0-10.4c0-5.4-0.1-10.8,0-16.2c-0.1-2.2,0-4.5,0-6.7C335.7,19.7,335.7,19.1,336.1,18.7z"/>
	<path fill="#F7C5CC" d="M125.8,18.7c-1,2.1-2.7,3.8-4,5.8c-2.3,3.4-5,6.6-7.3,10.1c-0.1,0.1-0.2,0.1-0.3,0c0.2-3.2,0.4-6.5,0.8-9.7
		c0.3-2.1,0.2-4.1,0.3-6.2C118.8,18.7,122.3,18.7,125.8,18.7z"/>
	<path fill="#F3ACC1" d="M173,29.4c-1.6-0.7-2.7-2.1-4.1-3.2c-2.6-2.1-5.2-4.3-7.8-6.5c-0.3-0.3-0.6-0.7-0.9-1c5.1,0,10.1,0,15.2,0
		c0.4,0.4,0.3,0.9,0.2,1.4c-0.6,2.7-1.2,5.4-1.8,8.1c-0.1,0.5-0.4,0.8-0.6,1.2C173.2,29.4,173.1,29.4,173,29.4z"/>
	<path fill="#8F719B" d="M336.1,18.7c0,2.7,0,5.5-0.1,8.2c-0.5,0.5-1.1,0.3-1.7,0.2c-4.1-0.9-8.2-1.7-12.3-2.5
		c-0.5-0.1-1.1-0.2-1.4-0.7l0,0c-0.1-0.1-0.1-0.2,0-0.4c2.2-1.1,4.2-2.5,6.2-3.7c0.7-0.4,1.3-0.8,2-1.1
		C331.3,18.7,333.7,18.7,336.1,18.7z"/>
	<path fill="#EBA1BE" d="M173.3,29.4c0.7-3.2,1.4-6.4,2.1-9.6c0.1-0.3,0.1-0.7,0.1-1.1c4.2,0,8.5,0,12.7,0
		c-3.8,2.7-7.5,5.5-11.3,8.2C175.7,27.7,174.7,28.8,173.3,29.4z"/>
	<path fill="#F9CECE" d="M4.4,30.2c2.8,1.1,5.7,2.3,8.5,3.4c0.5,0.2,0.9,0.5,1.4,0.4c0.1,0.2,0.3,0.3,0.6,0.3
		c0.1,0.1,0.1,0.1,0.1,0.2c0,0.1-0.1,0.1-0.1,0.1c-2.1,1.3-3.9,3.1-5.9,4.6c-1.6,1.2-3,2.6-4.6,3.6C4.4,38.6,4.4,34.4,4.4,30.2z"/>
	<path fill="#FAD7D5" d="M88.7,28.8c-1.7-0.1-2.5-1.6-3.7-2.5c-3-2.3-5.8-4.8-8.7-7.2c-0.1-0.1-0.2-0.3-0.3-0.4c4.1,0,8.3,0,12.4,0
		c0.3,0.4,0.3,0.9,0.4,1.3c0.2,2.7,0,5.5,0.2,8.2C89,28.4,88.9,28.6,88.7,28.8L88.7,28.8z"/>
	<path fill="#D488B7" d="M235.8,18.7c-1.7,1.8-3.4,3.7-5.1,5.5c-1.6,1.7-3.2,3.5-4.8,5.2c-0.2,0.1-0.3,0-0.4-0.2
		c-0.8-2-0.8-4.1-1.3-6.1c-0.2-0.9-0.3-1.9-0.5-2.8c-0.1-0.5-0.2-1.1,0.2-1.6C227.8,18.7,231.8,18.7,235.8,18.7z"/>
	<path fill="#FAD9D2" d="M64.4,18.7c0.2,2.8-0.4,5.7-0.3,8.5c-0.1,0.1-0.2,0.1-0.3,0c-4.3-2.7-8.6-5.4-12.9-8.1
		c-0.1-0.1-0.2-0.3-0.3-0.4C55.2,18.7,59.8,18.7,64.4,18.7z"/>
	<path fill="#86749C" d="M11.6,100.9c-2.4,0-4.8,0-7.2,0c0-2.1,0-4.2,0-6.3c0.3-0.3,0.6-0.4,1-0.4c2.6-0.1,5.2-0.1,7.9,0
		c0.4,0,0.7,0.2,1.1,0.2c0.2,0,0.3,0,0.5,0c0.4,0.2,0.3,0.5,0.2,0.8C13.9,97.2,13,99.2,11.6,100.9z"/>
	<path fill="#F9D3D5" d="M88.7,28.8c-0.5-3.4-0.2-6.8-0.3-10.2c3.4,0,6.8,0,10.2,0C95.3,22,92.3,25.7,88.7,28.8z"/>
	<path fill="#D985B0" d="M17.4,80.1c-4.3-0.3-8.7-0.5-13-0.8c0-2.7,0-5.5,0-8.2C8.8,74.1,13.1,77.1,17.4,80.1z"/>
	<path fill="#DB8EB8" d="M223.9,18.7c0.2,2.6,0.8,5.1,1.2,7.6c0.2,1,0.3,2.1,0.4,3.1c0,0-0.1,0.1-0.1,0.1c0,0-0.1-0.1-0.1-0.1
		c-0.8-0.8-1.5-1.6-2.3-2.4c-2.8-2.7-5.3-5.5-8-8.3C218,18.7,220.9,18.7,223.9,18.7z"/>
	<path fill="#F5BAC8" d="M144,18.7c-2.2,3.1-4.5,6.1-7.2,8.8c-0.4-2.9-0.7-5.8-0.8-8.8C138.7,18.7,141.3,18.7,144,18.7z"/>
	<path fill="#AE73A5" d="M14.9,94.7c-3.5,0-7,0-10.5,0c0-2.3,0-4.6,0-6.9c2.5,1.2,4.5,3.1,6.8,4.4c1.2,0.7,2.2,1.9,3.7,2.2
		C15,94.5,15,94.6,14.9,94.7z"/>
	<path fill="#A37CAC" d="M320.6,23.6c0,0.1,0,0.2,0,0.3c-2.7-1.5-5.1-3.3-7.5-5.2c2.7,0,5.3,0,8,0C321.7,20.4,321.5,22,320.6,23.6z"
		/>
	<path fill="#957DA9" d="M320.6,23.6c0.2-1.6,0.4-3.3,0.5-4.9c2.6,0,5.2,0,7.7,0C326.3,20.6,323.7,22.4,320.6,23.6z"/>
	<path fill="#BE80B1" d="M272.8,24.4c-1.3-1.8-3.2-3-4.7-4.5c-0.4-0.4-0.7-0.8-1.1-1.2c2.1,0,4.2,0,6.4,0c0.8,1.7,0.4,3.5-0.1,5.2
		c0,0.2-0.1,0.3-0.1,0.5C273.1,24.5,273,24.5,272.8,24.4z"/>
	<path fill="#B67DAE" d="M273.1,24.2c0.2-1.8,0.4-3.7,0.3-5.5c1.5,0,2.9,0,4.4,0c-1.5,1.8-2.9,3.7-4.4,5.5
		C273.3,24.3,273.2,24.3,273.1,24.2z"/>
	<path fill="#B66B9E" d="M35.4,100.9c-0.9,0-1.9,0-2.8,0c-0.6-0.2-0.9-0.7-1.2-1.1c-4.4-6.1-8.8-12.1-13.2-18.2
		c-0.3-0.4-0.4-0.8-0.6-1.2c0-0.1,0-0.2,0-0.3c0-0.1,0-0.2,0-0.2c2.1-1.3,4.4-2.1,6.6-3.1c3-1.4,5.9-2.7,8.9-4
		c0.8-0.3,1.5-0.9,2.5-0.6c0.1,0.1,0.2,0.2,0.3,0.4c0.3,2.9,0.3,5.7,0.1,8.6c-0.3,4.6-0.1,9.3-0.2,13.9c0,1.4,0,2.8,0,4.2
		C35.8,99.8,35.9,100.4,35.4,100.9z"/>
	<path fill="#E38CAF" d="M35.4,72.1C30,74.6,24.7,77,19.3,79.4c-0.5,0.2-1,0.3-1.6,0.4c0-4.6,0.2-9.2,0.3-13.8
		c0.1-2.4,0.2-4.7,0.2-7.1c0-3.6,0.5-7.3,0.3-10.9c0.5-0.2,0.7,0.3,1,0.6c5.3,7.7,10.8,15.3,16,23.2C35.5,71.9,35.5,72,35.4,72.1z"
		/>
	<path fill="#F19EB3" d="M35.4,71.9c-1.5-1.6-2.5-3.5-3.7-5.2c-4.3-6-8.4-12.1-12.6-18.2c-0.1-0.2-0.3-0.3-0.5-0.5
		c0-0.1,0-0.2,0-0.3c0.1-0.1,0.2-0.2,0.3-0.3c0.1,0,0.1,0,0.2,0c2.8,0.7,5.4,1.8,8.1,2.7c5.3,1.9,10.6,3.7,15.8,5.6
		c0.9,0.3,1.8,0.6,2.6,1.2c0.2,0.3,0.2,0.5,0.1,0.8c-2.9,4.5-5.9,9-9,13.4C36.3,71.5,36.1,72,35.4,71.9z"/>
	<path fill="#F7C4C4" d="M14.9,34.6c0-0.1,0-0.2,0-0.3c0.1,0,0.2,0,0.3,0c1.4,0.7,3,0.4,4.4,0.4c3.4,0.2,6.7,0.5,10.1,0.7
		c4.7,0.2,9.4,0.7,14.1,1c1.1,0.1,2.1,0,3.2,0c0,0,0,0,0,0c0.1,0.1,0,0.3-0.1,0.4c-2.2,1.3-4.6,1.9-6.9,2.8
		c-6.4,2.5-12.8,4.9-19.2,7.4c-0.7,0.3-1.3,0.6-2.1,0.3c0,0,0,0,0,0c-0.9-1-1-2.3-1.3-3.5C16.6,40.9,15.8,37.7,14.9,34.6z"/>
	<path fill="#E67CA2" d="M173,29.6c3.6,0.2,7.2,1,10.8,1.5c4.1,0.5,8.2,1.2,12.3,1.8c3.1,0.5,6.1,0.9,9.2,1.4c0,0,0,0,0,0
		c0.2,0.7-0.4,1-0.8,1.3c-9.6,7.9-19.1,15.7-28.7,23.6c-0.4,0.4-0.8,0.9-1.6,0.6c-0.1-0.1-0.2-0.2-0.2-0.4c-0.3-2.3-0.2-4.5-0.3-6.8
		c-0.2-4.9-0.5-9.8-0.7-14.7c-0.1-2.5-0.2-5-0.3-7.5C172.8,30.1,172.9,29.8,173,29.6L173,29.6z"/>
	<path fill="#AA578F" d="M273.1,24.2c0.1,0,0.2,0,0.3,0c1.4,1.2,3.2,1.6,4.9,2.4c6.6,2.9,13.2,5.7,19.8,8.5c2,0.8,4,1.7,5.9,2.5
		c0,0,0,0,0,0c0.1,0.1,0.2,0.2,0.2,0.4c0.1,0.5-0.2,0.9-0.4,1.3c-2,4-4.1,8-5.9,12.1c-0.2,0.5-0.5,1.1-1,1.5
		c-0.2,0.1-0.4,0.1-0.6,0.1c-1.8-1.5-3.1-3.5-4.6-5.3c-6-7.2-11.9-14.4-17.9-21.5c-0.3-0.4-0.6-0.8-0.8-1.2c0-0.1,0-0.3,0.1-0.4
		C273.1,24.3,273.1,24.2,273.1,24.2z"/>
	<path fill="#F1A0B0" d="M114.2,34.6c0.1,0,0.2,0,0.3,0c2.2-0.2,4.1-1.2,6.2-1.8c5.4-1.6,10.8-3.4,16.2-5.1c0,0,0,0,0,0
		c0.4,0.5,0.3,1,0.2,1.6c-0.8,4.8-1.5,9.6-2.4,14.3c-0.4,2.2-0.6,4.4-1.2,6.6c-0.1,0.2-0.2,0.4-0.4,0.5c-0.1,0.1-0.3,0.1-0.4,0.1
		c-1.7-0.6-2.8-2.1-4.1-3.2c-5-4.1-9.9-8.2-14.7-12.5c-0.1-0.1-0.1-0.2,0-0.4C114,34.8,114.1,34.7,114.2,34.6z"/>
	<path fill="#F3ACB6" d="M113.9,34.8c0,0.1,0,0.2,0,0.3c0.3,0.4,0.1,0.8-0.1,1.1c-1.8,3.8-3.7,7.6-5.5,11.5
		c-0.2,0.3-0.3,0.6-0.6,0.9c-0.1,0.1-0.2,0.1-0.4,0.1c-1.4-0.5-2.2-1.8-3.2-2.7c-0.3-0.3-0.5-0.7-0.8-0.9
		c-4.5-4.5-8.8-9.1-13.2-13.7c-0.6-0.6-1.2-1.1-1.8-1.7c-0.1-0.2-0.1-0.4,0.1-0.6c0.1,0,0.2,0,0.3,0c8.1,1.8,16.3,3.7,24.4,5.5
		C113.4,34.6,113.6,34.8,113.9,34.8z"/>
	<path fill="#BA5D94" d="M273.1,24.4c0,0.1,0,0.2,0,0.3c0.5,1.7,0,3.4-0.2,5c-1.1,8.4-1.9,16.7-3,25.1c-0.1,0.5-0.1,0.9-0.3,1.3
		c-0.1,0.1-0.1,0.3-0.3,0.4c-0.1,0.1-0.3,0.1-0.4,0.1c-1.3-1.4-2.1-3.2-3-4.9c-3.8-6.5-7.5-13.1-11.3-19.6c-0.3-0.5-0.8-1-0.3-1.6
		c0-0.1,0-0.2,0-0.3c1.5,0,2.7-0.7,4.1-1.1c4.8-1.5,9.6-3.1,14.4-4.7C272.9,24.4,273,24.4,273.1,24.4z"/>
	<path fill="#C76298" d="M225.5,29.4c0.1,0,0.2,0,0.3,0c5.8,0.3,11.6,0.3,17.4,0.6c3.6,0.2,7.2-0.1,10.8,0.5
		c0.3,0.6,0.4,1.2,0.3,1.9c-1,5.5-1.9,11-3,16.5c-0.1,0.2-0.2,0.4-0.4,0.5c-0.1,0.1-0.3,0.1-0.4,0.1c-2.4-1.5-4.5-3.4-6.7-5.2
		c-5.8-4.6-11.7-9.2-17.5-13.8c-0.3-0.2-0.6-0.4-0.8-0.8C225.4,29.6,225.5,29.5,225.5,29.4L225.5,29.4z"/>
	<path fill="#BE5391" d="M251,49.1c0.2-2.5,0.9-4.9,1.2-7.4c0.5-3.8,1.6-7.5,1.8-11.3c0.1,0,0.2,0,0.3,0c1.1,2.6,2.7,5,4.1,7.4
		c2.8,5.1,5.8,10,8.6,15.1c0.7,1.2,1.3,2.4,2,3.6c-0.6,0.2-1.1-0.1-1.6-0.3c-5.1-2-10.2-4-15.3-6.1C251.6,49.9,251,49.9,251,49.1z"
		/>
	<path fill="#9D568C" d="M304,37.9c0-0.1,0-0.2,0-0.3c1.7-0.8,2.9-2.2,4.3-3.3c4.1-3.3,8-6.9,12.3-10.1c0.1,0.1,0.2,0.3,0.3,0.4
		c0.2,1.9-0.1,3.7-0.2,5.6c-0.5,5.6-0.8,11.3-1.3,16.9c-0.3,2.9-0.3,5.8-0.7,8.7c0,0.2-0.1,0.3-0.2,0.4c-0.2,0.2-0.4,0.2-0.6,0.2
		c-0.6-0.2-0.9-0.8-1.2-1.3c-3.9-5.2-7.8-10.4-11.8-15.6C304.6,39,304.3,38.4,304,37.9z"/>
	<path fill="#8F5C8B" d="M320.6,24.4c0-0.1,0-0.2,0-0.3c0-0.1,0-0.2,0-0.3c4.7,1,9.5,2,14.2,3c0.4,0.1,0.8,0,1.2,0
		c0,5.4,0,10.8,0,16.2c-0.5,0.1-0.7-0.3-1-0.6c-4.6-5.7-9.2-11.3-13.8-17C321,25.1,320.9,24.7,320.6,24.4z"/>
	<path fill="#DE6599" d="M174.7,59.8c5.3-4.4,10.5-8.7,15.8-13.1c4.6-3.8,9.2-7.5,13.8-11.2c0.4-0.3,0.7-0.8,1.1-1.2
		c0.1,0,0.2,0,0.3,0c0.2,0.2,0.3,0.4,0.3,0.7c0.8,6,1.3,12.1,2,18.1c0.2,1.6,0.5,3.2,0.3,4.8c-0.1,0.3-0.3,0.4-0.5,0.5
		c-1.5,0.4-3.1,0.3-4.7,0.4c-4.3,0.2-8.6,0.4-12.9,0.7c-4.4,0.2-8.9,0.4-13.3,0.7C176.1,60.2,175.3,60.4,174.7,59.8z"/>
	<path fill="#D5669B" d="M205.6,34.8c0-0.2,0-0.4,0-0.5c6.3-1.6,12.7-3.1,19-4.7c0.2-0.1,0.4-0.2,0.6-0.3c0.1,0,0.2,0,0.3,0
		c0,0.1,0,0.2,0,0.3c0.3,0.5,0.4,1.1,0.4,1.7c-0.9,8-1.7,15.9-2.6,23.9c0,0.4-0.1,0.8-0.2,1.2c-0.1,0.1-0.1,0.3-0.2,0.4
		c-0.7,0.1-1.1-0.4-1.4-0.9c-5-6.6-10.1-13.2-15-19.8C206.1,35.7,205.9,35.3,205.6,34.8z"/>
	<path fill="#F5B6B9" d="M47,36.8c0-0.1,0-0.2,0-0.3c2.5-0.9,4.6-2.4,6.9-3.6c3.1-1.6,6.1-3.4,9.1-5c0.3-0.2,0.7-0.3,0.8-0.7
		c0.1,0,0.2,0,0.3,0c0,0,0,0,0,0c0.2,0.2,0.3,0.4,0.3,0.7c0.8,7.7,1,15.4,1.7,23.1c0.2,2.9,0.6,5.9,0.4,8.9
		c-0.1,0.2-0.3,0.4-0.5,0.4c-0.6,0-0.8-0.6-1.1-0.9C59.2,52.2,53.4,45,47.6,37.9c-0.2-0.3-0.5-0.6-0.5-0.9C47,36.9,47,36.8,47,36.8z
		"/>
	<path fill="#ED8CA9" d="M173,29.6c0,0.2,0,0.4,0,0.5c-0.2,2-1.2,3.7-1.9,5.5c-2,5-4,10.1-6,15.1c-0.8,1.9-1.4,4-2.6,5.7
		c-0.1,0.1-0.3,0.1-0.4,0c-0.4-0.3-0.6-0.7-0.7-1.1c-2.3-6.8-4.5-13.7-7-20.5c-0.1-0.2-0.1-0.4-0.1-0.5c0-0.2,0-0.3,0.1-0.4
		c5.9-1.4,11.8-2.8,17.7-4.3C172.5,29.7,172.8,29.7,173,29.6z"/>
	<path fill="#F09AAE" d="M154.5,34c0,0.1,0,0.2,0,0.3c-0.3,0.8-1,1.1-1.6,1.6c-6,4.6-11.9,9.2-17.9,13.8c-0.5,0.4-1,1-1.8,0.8
		c0-2.3,0.6-4.5,0.9-6.7c0.7-4.7,1.6-9.4,2.4-14c0.1-0.7,0.2-1.3,0.3-2c5.2,1.8,10.5,3.6,15.7,5.5c0.6,0.2,1.1,0.4,1.7,0.6
		C154.3,33.8,154.4,33.9,154.5,34z"/>
	<path fill="#F4B5B8" d="M64.1,27.7c0-0.2,0-0.4,0-0.5c4.2,0.4,8.4,0.5,12.6,1c2.6,0.3,5.2,0.5,7.8,0.6c1.3,0,2.6,0.4,4,0.3
		c0,0.2,0,0.4,0,0.5c0.4,0.5,0.1,1.1-0.1,1.6c-2.6,7.8-5.2,15.7-7.9,23.5c-0.2,0.5-0.3,1-0.7,1.3c-0.1,0.1-0.3,0.1-0.4,0.1
		c-1.4-1.8-2.2-4-3.3-6c-3.7-6.8-7.4-13.7-11.1-20.5C64.6,29,64.5,28.3,64.1,27.7z"/>
	<path fill="#A46B9C" d="M17.7,80.4c3.1,4.3,6.2,8.5,9.3,12.8c1.9,2.6,3.7,5.2,5.6,7.8c-1.6,0-3.1,0-4.7,0c-1.5-0.3-2.8-1.1-4.1-1.8
		c-2.4-1.2-4.8-2.3-7.1-3.5c-0.6-0.3-1.2-0.5-1.4-1.2c0.5-2.9,1-5.8,1.5-8.7C17,83.9,17.4,82.2,17.7,80.4z"/>
	<path fill="#806D94" d="M15.2,94.4c3.1,1.9,6.5,3.3,9.7,4.9c1,0.5,2,1.1,3,1.6c-4.1,0-8.3,0-12.4,0c-0.6-0.5-0.7-1.1-0.7-1.8
		c0-1.5,0-2.9,0.1-4.4c0,0,0,0,0,0c0-0.1,0-0.2,0-0.3C15.1,94.4,15.1,94.4,15.2,94.4z"/>
	<path fill="#B9679A" d="M35.4,100.9c-0.2-9.6,0.3-19.2,0.3-28.8c0.4-0.4,0.8-0.3,1.3-0.2c7.1,1.6,14.1,3.1,21.2,4.8
		c0.1,0.1,0.3,0.1,0.4,0.2c0.1,0.1,0.2,0.2,0.2,0.4c-0.9,1.9-2.4,3.2-3.7,4.7c-4.9,5.9-9.9,11.6-14.8,17.5c-0.4,0.5-0.8,1.1-1.5,1.4
		C37.6,100.9,36.5,100.9,35.4,100.9z"/>
	<path fill="#B05C93" d="M58.6,77.4c0-0.1,0-0.2,0-0.3c0.1-0.1,0.1-0.1,0.2-0.2c0.5-0.3,1-0.2,1.5-0.1c0.5,0.1,1.1,0.1,1.6,0.1
		c6.1-0.2,12.2,0.5,18.3,0.3c1.2,0,2.5,0.2,3.7,0.4c0.1,0,0.3,0.1,0.4,0.2c0.2,0.5-0.2,0.8-0.4,1.1c-4.3,6.8-8.5,13.5-12.8,20.3
		c-0.4,0.6-0.7,1.4-1.5,1.7c-1.9,0-3.7,0-5.6,0c-0.6-0.2-0.6-0.8-0.7-1.2c-1.7-6.9-3.2-13.9-4.9-20.9C58.4,78.3,58.3,77.8,58.6,77.4
		z"/>
	<path fill="#A04687" d="M138.8,100.9c-8.6,0-17.1,0-25.7,0c-0.2-0.8,0.4-1.2,0.8-1.6c2.1-2.2,4.3-4.4,6.4-6.6
		c3.2-3.3,6.4-6.6,9.5-9.9c2.8-3,5.9-5.8,8.6-8.9c0.4-0.4,0.7-1.1,1.5-0.9c0.1,0.1,0.1,0.3,0.1,0.4c0,5.3-0.3,10.6-0.4,15.9
		c-0.1,3.2-0.2,6.5-0.2,9.7C139.4,99.7,139.3,100.4,138.8,100.9z"/>
	<path fill="#944F88" d="M320.6,24.4c2,1.8,3.5,4.1,5.3,6.2c3.1,3.8,6.2,7.6,9.3,11.4c0.3,0.3,0.4,0.8,0.9,1c0,3.5,0,7,0,10.4
		c-0.4,0.4-0.9,0.4-1.4,0.5c-4.8,0.8-9.5,1.6-14.3,2.5c-0.7,0.1-1.4,0.3-2-0.2c0.3-4.8,0.5-9.7,1.1-14.5c0.2-1.5,0.1-3.1,0.2-4.6
		C320.2,32.9,320.3,28.7,320.6,24.4z"/>
	<path fill="#B54E8E" d="M139.6,73c-1,1.2-2,2.3-3.1,3.5c-3.4,3.5-7,7-10.4,10.6c-4,4.3-8,8.5-12.2,12.6c-0.3,0.3-0.6,0.8-0.9,1.2
		c-0.5,0-0.9,0-1.4,0c-0.4-0.3-0.4-0.8-0.5-1.3c-1-5.9-1.9-11.8-2.9-17.7c-0.1-0.4-0.1-0.7,0-1.1c0-0.2,0.1-0.5,0.2-0.7
		c0.1-0.1,0.2-0.3,0.3-0.3c2.8-0.9,5.8-1.5,8.7-2.1c6.8-1.6,13.7-3.2,20.5-4.8C138.5,72.9,139.1,72.6,139.6,73z"/>
	<path fill="#90247B" d="M199.6,100.9c-6.5,0-13.1,0-19.6,0c-0.1-0.6,0.4-0.9,0.7-1.2c3.6-4,7.5-7.6,11.3-11.5
		c2.6-2.7,5.2-5.4,7.9-8c0.4-0.4,0.7-1.2,1.6-0.8c1.9,4.2,3.5,8.6,5.2,12.9c0.8,2,1.7,4,2.3,6.1c0,0.2,0,0.3-0.1,0.4
		c-0.1,0.1-0.2,0.2-0.4,0.3C205.5,99.9,202.6,100.6,199.6,100.9z"/>
	<path fill="#572666" d="M299.3,100.9c-4.2,0-8.3,0-12.5,0c-3.5-0.8-6.8-2.5-10.1-3.8c-2.8-1.1-5.5-2.2-8.3-3.4
		c-0.5-0.2-1.2-0.2-1.3-1c0.4-0.6,1.1-0.7,1.7-0.9c7.9-2.5,15.8-5,23.7-7.5c0.6-0.2,1.1-0.4,1.7-0.4c0.3,0,0.6,0.2,0.7,0.5
		c1.4,4.9,2.7,9.7,4.1,14.6C299.4,99.6,299.7,100.2,299.3,100.9z"/>
	<path fill="#9C6291" d="M58.6,77.4c1.8,7.8,3.7,15.7,5.5,23.5c-8.5,0-16.9,0-25.4,0c1.5-2.3,3.4-4.2,5.2-6.3
		c3.2-3.9,6.5-7.7,9.8-11.6C55.3,81.1,57,79.3,58.6,77.4z"/>
	<path fill="#A62C81" d="M201.2,79.3c-2.7,2.5-5.3,5.2-7.8,7.9c-2.9,3.1-6,6-9,9c-1.5,1.5-2.9,3.1-4.4,4.7c-1.5,0-3,0-4.4,0
		c-0.4-0.5-0.2-1.1,0-1.6c2.1-7.8,4-15.6,6.1-23.4c0.1-0.1,0.3-0.2,0.4-0.2c1.7-0.1,3.4,0.4,5,0.7c4.7,0.8,9.4,1.7,14.2,2.3
		c0.4,0,0.8,0,1.2,0.3C202.2,79.7,201.7,79.5,201.2,79.3z"/>
	<path fill="#B25590" d="M108.6,80.1c0,0.2,0,0.4,0,0.5c-2.3,1.9-4.3,4.1-6.4,6.3c-4.3,4.5-8.8,8.8-13.2,13.2
		c-0.3,0.3-0.7,0.6-1.1,0.8c-0.4,0-0.8,0-1.1,0c-0.5-0.3-0.6-0.8-0.7-1.3c-0.7-6-1.4-12-2-18c-0.1-1.2-0.6-2.3,0.1-3.5
		c0-0.1,0-0.2,0-0.3c-0.1-0.2,0-0.3,0.2-0.4c0.2,0,0.3-0.1,0.5,0c7.8,0.8,15.5,1.4,23.3,2.4C108.4,79.9,108.5,80,108.6,80.1z"/>
	<path fill="#A03481" d="M181.6,76c0.4,0.6,0,1.2-0.1,1.8c-2,7.6-4,15.2-5.9,22.8c0,0.1,0,0.2,0,0.3c-3.2,0-6.5,0-9.7,0
		c-0.8-0.3-1.5-0.8-2.2-1.3c-2-1.4-4-2.9-6.1-4.4c-0.4-0.3-0.9-0.5-1-1.1c0.1-0.6,0.6-0.9,1-1.2c7.3-5.2,14.7-10.5,22-15.7
		c0.5-0.3,1-0.7,1.4-1.1C181.2,76,181.4,75.9,181.6,76z"/>
	<path fill="#8B2D7B" d="M318.4,56.2c2.7-0.1,5.4-0.9,8.1-1.3c3.2-0.4,6.3-1.3,9.6-1.5c0,3,0,6,0,9.1c-1.3,2.4-3.1,4.4-4.7,6.6
		c-2.6,3.6-5.1,7.2-7.9,10.7c-0.1,0.1-0.3,0.1-0.4,0c-0.1-0.1-0.2-0.2-0.3-0.3c-0.9-2.8-1.2-5.6-1.9-8.4c-1-4.3-1.8-8.7-2.6-13
		c-0.1-0.5-0.2-1-0.1-1.5C318.2,56.5,318.3,56.4,318.4,56.2L318.4,56.2z"/>
	<path fill="#9E518B" d="M87.9,100.9c3.4-3.4,6.7-6.7,10.1-10.1c3.1-3.2,6.3-6.4,9.4-9.6c0.3-0.3,0.6-0.9,1.2-0.5
		c0.3,3.4,1,6.8,1.5,10.2c0.5,3.4,1.2,6.7,1.5,10.1C103.8,100.9,95.8,100.9,87.9,100.9z"/>
	<path fill="#45295C" d="M299.3,100.9c-1.5-5.2-3-10.5-4.5-15.7c-0.1-0.3-0.2-0.5,0.1-0.7c0.6-0.4,1.1,0,1.5,0.2
		c6,2.6,11.9,5.1,17.9,7.7c2.5,1.1,5,2.1,7.5,3.2c0.4,0.2,0.8,0.3,1.1,0.6c0.1,0.6-0.3,0.7-0.7,0.9c-2.9,1.2-5.6,3-8.7,3.8
		C308.7,100.9,304,100.9,299.3,100.9z"/>
	<path fill="#AE4088" d="M138.8,100.9c0.4-1.2,0.3-2.4,0.3-3.7c-0.1-4.7,0.3-9.3,0.4-13.9c0.1-2.9,0.1-5.8,0.2-8.7
		c0-0.5,0.2-1.1,0.3-1.6c-0.1-0.1-0.1-0.2,0-0.3c0.1,0,0.3,0,0.4,0.1c3.6,3.2,7.4,6.2,11.1,9.3c0.4,0.3,0.8,0.6,1,1.1
		c0.1,0.2,0.1,0.4,0,0.6c-3.1,5.4-6.3,10.7-9.5,16c-0.3,0.5-0.5,1-1.1,1.2C140.8,100.9,139.8,100.9,138.8,100.9z"/>
	<path fill="#9C598D" d="M84.3,78.2c0.1,3.4,0.6,6.7,1,10.1c0.4,2.9,0.6,5.8,0.9,8.8c0.2,1.3,0.1,2.6,0.5,3.9c-5.7,0-11.4,0-17.1,0
		c3-4.8,6.1-9.7,9.1-14.5c1.6-2.5,3.2-5,4.7-7.5C83.7,78.6,83.9,78.2,84.3,78.2z"/>
	<path fill="#512763" d="M323.1,79.9c0.1,0,0.2,0,0.3-0.1c0.4-0.3,0.9-0.2,1.3-0.2c3.2,0.4,6.5,0.8,9.7,1.2c0.6,0.1,1.2,0.1,1.7,0.6
		c0,1.7,0,3.5,0,5.2c-0.1,0.3-0.3,0.6-0.6,0.8c-3.7,2.8-7.4,5.5-11.1,8.3c-0.5,0.4-1.2,0.9-1.6-0.2c-0.2-4.9-0.1-9.7-0.1-14.6
		C322.7,80.6,322.8,80.2,323.1,79.9z"/>
	<path fill="#582667" d="M261.2,100.9c-5.7,0-11.4,0-17.2,0c-0.3-0.1-0.5-0.4-0.6-0.7c-0.2-1.7-0.5-3.4-0.3-5.1
		c0.1-0.1,0.3-0.2,0.4-0.2c2.1-0.6,4.3-0.6,6.4-0.8c5.2-0.5,10.3-1.1,15.5-1.5c0.3,0,0.6-0.1,1,0c0.2,0.1,0.4,0.2,0.4,0.5
		c-0.1,1.1-1,1.7-1.5,2.5c-0.9,1.5-2,2.8-2.9,4.3C262.1,100.3,261.7,100.7,261.2,100.9z"/>
	<path fill="#761F73" d="M336,81.5c-4.2-0.6-8.5-1.1-12.7-1.7c1.6-2.6,3.5-4.9,5.2-7.3c2.2-3.1,4.5-6.2,6.8-9.3
		c0.2-0.3,0.5-0.4,0.7-0.7C336.1,68.9,336.1,75.2,336,81.5z"/>
	<path fill="#9C3E84" d="M141.8,100.9c3.3-5.6,6.7-11.2,10-16.8c0.1-0.2,0.3-0.3,0.5-0.5c0.5,0.1,0.6,0.5,0.7,0.9
		c1.1,2.8,2.2,5.6,3.3,8.5c0.1,0.3,0.2,0.6,0.2,0.9c0,0.1,0,0.3,0,0.4c-2.9,2.2-5.9,4.2-9,6.2c-0.3,0.2-0.7,0.2-1,0.4
		C145,100.9,143.4,100.9,141.8,100.9z"/>
	<path fill="#332A54" d="M323.1,96c1.9-0.7,3.3-2.3,4.9-3.4c2.7-1.9,5.4-3.9,8-5.9c0,4.6,0,9.1,0,13.7c0,0.2,0.1,0.5-0.3,0.5
		c-4.3-1-8.3-2.8-12.4-4.3c-0.1-0.1-0.2-0.2-0.3-0.3C323,96.3,323,96.2,323.1,96z"/>
	<path fill="#5A2669" d="M243.2,95.2c0.5,1.5,0.2,3,0.5,4.5c0.1,0.4,0.1,0.8,0.3,1.2c-6.4,0-12.7,0-19.1,0c-0.3-0.8,0.5-0.8,0.8-1.1
		c5.4-1.7,10.8-3.1,16.2-4.7C242.4,95.1,242.8,95,243.2,95.2z"/>
	<path fill="#372A56" d="M266.7,93.3c0-0.2,0-0.3,0-0.5c0.2-0.2,0.3-0.2,0.5,0c4.2,1.7,8.4,3.5,12.5,5.2c2.4,1,4.7,2,7.1,3
		c-3.9,0-7.7,0-11.6,0c-1.7-1.1-3.1-2.6-4.6-3.9c-1.3-1.1-2.4-2.4-3.8-3.4C266.8,93.5,266.8,93.4,266.7,93.3z"/>
	<path fill="#80387B" d="M156.4,94.4c0-0.1,0-0.2,0-0.3c0.1-0.1,0.2-0.1,0.3,0c2.9,2.1,5.8,4.2,8.6,6.4c0.2,0.1,0.3,0.3,0.5,0.5
		c-3.8,0-7.5,0-11.3,0c0-1.6,0.8-2.9,1.2-4.4C155.9,95.8,155.8,94.9,156.4,94.4z"/>
	<path fill="#1F274D" d="M323.1,96.3c4.3,1.4,8.5,2.9,12.7,4.6c-4.6,0-9.2,0-13.8,0C322,99.3,322.1,97.7,323.1,96.3z"/>
	<path fill="#352A52" d="M267,93.3c3,2.3,5.6,5,8.3,7.6c-2.5,0-5,0-7.5,0c-1-1.3-0.7-2.9-0.9-4.3C266.8,95.5,266.3,94.4,267,93.3z"
		/>
	<path fill="#813E7E" d="M156.4,94.4c-0.4,2.2-1,4.4-1.9,6.5c-2.7,0-5.3,0-8,0C149.8,98.8,153,96.3,156.4,94.4z"/>
	<path fill="#3E2957" d="M267,93.3c0.1,2.6,0.5,5.1,0.8,7.6c-2.2,0-4.4,0-6.6,0c1.8-2.5,3.7-5.1,5.5-7.6
		C266.8,93.3,266.9,93.3,267,93.3z"/>
	<path fill="#63246C" d="M225.8,100.2c-0.2,0.3-0.9,0.2-0.8,0.8c-5.6,0-11.2,0-16.9,0c-0.4-0.9,0.1-1.5,0.5-2.2c0-0.1,0-0.2,0-0.2
		c0.1-0.1,0.3-0.2,0.4-0.2c4.4,0.3,8.7,0.9,13,1.3c1,0.1,2,0.1,3,0.2C225.4,99.8,225.7,99.9,225.8,100.2z"/>
	<path fill="#262950" d="M323.1,96.3c-0.4,1.5-0.7,3.1-1.1,4.6c-2.9,0-5.7,0-8.6,0c2.5-1.2,5.1-2.4,7.6-3.6c0.6-0.3,1.2-0.7,1.8-1
		C322.9,96.2,323,96.2,323.1,96.3L323.1,96.3z"/>
	<path fill="#7C7294" d="M15,94.7c0.5,0.8,0.2,1.8,0.3,2.6c0.1,1.2-0.2,2.4,0.3,3.6c-1.3,0-2.6,0-3.9,0c0.8-2,2.1-3.7,3.1-5.6
		C14.8,95.1,14.9,94.9,15,94.7z"/>
	<path fill="#722774" d="M199.6,100.9c2.9-0.7,5.9-1.4,8.8-2.1c-0.3,1.4-1.6,1.5-2.5,2.1C203.8,100.9,201.7,100.9,199.6,100.9z"/>
	<path fill="#6B226F" d="M205.9,100.9c0.6-1,1.9-1.1,2.5-2.1c0.1,0,0.2,0,0.3,0c0,0.8-0.4,1.4-0.5,2.2
		C207.4,100.9,206.7,100.9,205.9,100.9z"/>
	<path fill="#DD7EA5" d="M58.3,77.1c-7.3-1.6-14.6-3.3-21.8-4.9c-0.3-0.1-0.5,0-0.8-0.1c-0.1,0-0.2,0-0.3,0c0-0.1,0-0.2,0-0.3
		c0.8-0.5,1.2-1.3,1.7-2.1c2.8-4.1,5.5-8.1,8.2-12.2c0.8-0.4,1.1,0.3,1.3,0.8c3.3,5.1,6.5,10.1,9.8,15.2c0.5,0.7,1,1.4,1.4,2.2
		C58.2,76.1,58.6,76.5,58.3,77.1z"/>
	<path fill="#F5B4BD" d="M18.8,47.5c4.8-1.8,9.6-3.7,14.3-5.5c4.6-1.8,9.2-3.5,13.8-5.2c0,0,0,0,0,0c0.4,0.8,0.4,1.6,0.4,2.5
		c-0.4,5-0.8,10-1.1,15.1c0,0.9-0.1,1.7-0.5,2.5c-0.1,0.1-0.1,0.1-0.2,0.2c-6-2.1-12-4.2-18-6.3C24.7,49.7,21.7,48.9,18.8,47.5z"/>
	<path fill="#E485A6" d="M58.3,77.1c-2.8-4.4-5.6-8.7-8.4-13.1c-1.1-1.7-2.1-3.4-3.2-5.1c-0.3-0.5-0.5-1.2-1.3-1.3
		c0.1-0.2,0.2-0.4,0.3-0.5c0,0,0,0,0,0c0.6-0.4,1.2-0.2,1.7-0.1c5.6,0.8,11.1,1.7,16.7,2.4c0.6,0.1,1.3,0.2,1.8,0.6
		c0.2,0,0.4,0,0.5,0c0,0.1,0.1,0.1,0.1,0.2c0,0.2,0,0.4-0.1,0.6c-2.1,5-4.5,10-6.7,15c-0.2,0.5-0.5,1-1,1.2c0,0,0,0,0,0
		C58.5,77.1,58.4,77.1,58.3,77.1z"/>
	<path fill="#D64D8F" d="M174.7,59.8c4.6-0.3,9.2-0.3,13.8-0.8c1.8-0.2,3.7-0.2,5.5-0.2c4.6-0.1,9.2-0.7,13.9-0.6
		c0,0.1,0.1,0.1,0.1,0.2c0,0.1-0.1,0.2-0.2,0.3c-3,2.3-6.2,4.3-9.3,6.4c-4.9,3.4-9.8,6.8-14.8,10.1c-0.6,0.4-1.1,0.8-1.9,0.6
		c-0.6-0.2-0.7-0.7-0.9-1.1c-2.2-4.8-4.3-9.6-6.5-14.3c0-0.1-0.1-0.3,0-0.4c0-0.1,0.1-0.1,0.1-0.2C174.5,59.8,174.6,59.8,174.7,59.8
		z"/>
	<path fill="#EA7BA1" d="M162.5,56.5c3.5-8.8,7-17.6,10.5-26.3c0.2,0.2,0.3,0.5,0.3,0.7c-0.2,3,0.2,6,0.3,9
		c0.1,4.7,0.5,9.4,0.8,14.1c0.1,1.9,0,3.8,0,5.7c0,0,0,0,0,0c-0.4,0.3-0.8,0.1-1.2,0c-3-0.9-6.1-1.6-9.2-2.4
		c-0.5-0.1-1.1-0.3-1.4-0.7C162.6,56.7,162.6,56.6,162.5,56.5z"/>
	<path fill="#A2297F" d="M296.3,52.7c0.2,0,0.4,0,0.5,0c0,0.1,0.1,0.1,0.1,0.2c0.1,2.7-0.3,5.4-0.4,8.2c-0.1,3.4-0.6,6.8-0.7,10.2
		c-0.2,3.9-0.4,7.7-0.8,11.6c0,0.3-0.1,0.6-0.3,0.9c-0.1,0.1-0.2,0.2-0.4,0.2c-0.6,0.1-0.8-0.4-1.1-0.7c-3.9-4-7.5-8.1-11.3-12.1
		c-4.3-4.6-8.6-9.2-12.8-13.9c-0.1-0.1-0.1-0.2-0.1-0.4c0-0.1,0.1-0.3,0.2-0.4l0,0c1.3-0.7,2.8-0.7,4.3-0.9c7.1-1,14.1-2.1,21.2-3
		C295.2,52.6,295.8,52.6,296.3,52.7z"/>
	<path fill="#B14F8E" d="M296.3,52.7c-2.2,0.7-4.5,0.7-6.7,1.1c-4.2,0.7-8.5,1.3-12.8,1.8c-2.5,0.3-5,0.9-7.6,0.9
		c0.6-4.6,1.1-9.3,1.7-13.9c0.6-5,1.3-10.1,1.9-15.1c0.1-0.9,0-1.9,0.3-2.8c2.4,2.8,4.8,5.7,7.2,8.5c2.8,3.4,5.7,6.8,8.5,10.2
		C291.3,46.5,293.8,49.6,296.3,52.7z"/>
	<path fill="#9F4889" d="M304,37.9c2.5,2.8,4.6,6,6.9,8.9c2.4,3.1,4.6,6.3,6.9,9.4c-0.5,0.5-1,0.3-1.6,0.2c-6-1-12-2-18-3
		c-0.5-0.1-1.1-0.1-1.4-0.7c0,0,0,0,0,0c2.3-4.6,4.6-9.3,6.9-13.9C303.9,38.5,303.9,38.2,304,37.9z"/>
	<path fill="#EB7EA3" d="M108.6,80.1c-0.1,0-0.2,0-0.3,0c-0.5-0.6-0.4-1.3-0.4-1.9c-0.1-6.8-0.5-13.6-0.6-20.3
		c-0.1-2.9-0.2-5.8-0.2-8.7c0-0.2,0-0.3,0.1-0.5c0.1,0,0.2,0,0.3,0c2.1-0.4,4.2,0.1,6.3,0.2c5.4,0.4,10.8,1,16.2,1.3
		c0.9,0,1.8,0.4,2.6,0.7c0.1,0,0.2,0,0.3,0c0,0.1,0.1,0.1,0.1,0.2c0,0.1,0,0.3-0.1,0.4c-3.7,4.7-7.7,9.3-11.5,14
		c-3.8,4.5-7.5,9.1-11.3,13.6C109.7,79.4,109.2,79.8,108.6,80.1L108.6,80.1z"/>
	<path fill="#ED87A7" d="M133.2,50.5c2.5-1.5,4.7-3.5,7.1-5.3c4-3,8-6.2,12-9.2c0.7-0.6,1.5-1.1,2.2-1.6c1.7,3.8,2.8,7.8,4.1,11.7
		c1.2,3.5,2.4,7,3.6,10.6c-0.5,0.5-1.1,0.3-1.7,0.2c-8.8-1.8-17.6-3.5-26.4-5.3c-0.5-0.1-0.9-0.3-1.2-0.6c0,0,0,0,0,0
		C133.1,50.7,133.1,50.6,133.2,50.5z"/>
	<path fill="#F09BAF" d="M132.7,50.7c-4-0.4-8-0.7-12-1c-2.7-0.2-5.5-0.3-8.2-0.6c-1.7-0.2-3.4-0.1-5-0.5c2.1-4.5,4.2-9,6.4-13.4
		c1.2,0.4,1.9,1.4,2.8,2.1C122.1,41.7,127.4,46.2,132.7,50.7z"/>
	<path fill="#F2A5B3" d="M107.3,48.6c0,0.1,0,0.2,0,0.3c0,0.1-0.1,0.1-0.1,0.2c-1.5,0.8-3.2,1-4.7,1.4C95.3,52.3,88.1,54.1,81,56
		c-0.4,0.1-0.8,0.2-1.2,0.1c-0.1,0-0.1-0.1-0.2-0.1c2.9-8.8,5.9-17.5,8.8-26.3c1.7,0.8,2.7,2.4,4,3.7c0.4,0.4,0.8,1,1.3,1.4
		c3.3,3.4,6.6,6.7,9.9,10.1C104.8,46.1,105.9,47.5,107.3,48.6z"/>
	<path fill="#BA3C88" d="M269.2,56.5c0,0.1,0,0.2,0,0.3c-0.2,0.3-0.3,0.7-0.6,0.9c-2.9,2.8-5.6,5.8-8.7,8.4
		c-1.7,1.5-3.2,3.2-4.8,4.7c-0.4,0.4-0.7,0.9-1.3,0.8c-0.1-0.1-0.2-0.2-0.3-0.3c-0.7-2.5-0.8-5-1.2-7.6c-0.6-4.2-1.1-8.3-1.7-12.5
		c-0.1-0.6-0.2-1.3,0-1.9c0.1-0.1,0.2-0.2,0.3-0.3c2.7,1.4,5.6,2.4,8.4,3.6c3.2,1.3,6.4,2.6,9.5,3.8C269,56.5,269.1,56.5,269.2,56.5
		z"/>
	<path fill="#CD5A96" d="M222.8,56.8c0.4-3.3,0.7-6.6,1.1-9.9c0.3-2.6,0.6-5.1,0.8-7.7c0.3-3.2,0.8-6.4,0.9-9.6
		c4,3.1,8.1,6.2,12.1,9.4c4.1,3.2,8.2,6.5,12.3,9.7c0.2,0.2,0.4,0.4,0.5,0.6c-0.4,0.6-1.1,0.7-1.8,0.9c-8.1,2.2-16.1,4.4-24.2,6.5
		C223.9,56.9,223.3,57.3,222.8,56.8z"/>
	<path fill="#C53F8A" d="M222.8,56.8c3.2-0.8,6.5-1.6,9.7-2.5c6-1.6,12-3.3,18-4.9c0.1,0,0.2,0,0.3,0c0.5,1.7,0.6,3.6,0.8,5.4
		c0.4,3.1,0.8,6.2,1.2,9.3c0.3,2.5,0.7,5,1,7.5c-0.1,0-0.1,0.1-0.2,0.1c-0.2,0.1-0.4,0.1-0.6,0.1c-1.8-0.7-3.4-1.5-5.1-2.4
		c-8-3.9-16.2-7.6-24.2-11.6c-0.3-0.2-0.7-0.3-1-0.5c-0.1-0.1-0.2-0.2-0.2-0.3c0-0.1,0-0.1,0-0.2C222.6,56.8,222.7,56.8,222.8,56.8z
		"/>
	<path fill="#98297D" d="M296.8,52.7c3,0.5,6.1,1.1,9.1,1.6c3.7,0.6,7.4,1.3,11,1.9c0.3,0,0.5,0,0.8,0c0.2,0,0.4,0,0.6,0
		c0,0.1,0,0.2,0,0.3c-1.2,2.1-3,3.8-4.6,5.6c-4,4.8-8.1,9.5-12.2,14.3c-2.2,2.5-4.3,5.1-6.6,7.6c-0.2,0.1-0.4,0.1-0.6,0.1
		c0-0.1-0.1-0.1-0.1-0.2c0.5-2,0.5-4,0.6-6.1c0.2-3.8,0.4-7.7,0.8-11.5c0.4-4.3,0.6-8.6,0.8-12.9C296.6,53.2,296.8,52.9,296.8,52.7z
		"/>
	<path fill="#D65C96" d="M205.6,34.8c1.9,1.8,3.2,4,4.8,6.1c4.1,5.2,8,10.6,12,15.9c0,0,0,0,0,0c-0.4,0.5-0.9,0.6-1.5,0.6
		c-3.5,0.2-7,0.6-10.5,0.8c-0.8,0.1-1.7,0.2-2.4-0.4c-0.5-1.3-0.4-2.8-0.5-4.2c-0.4-4.9-1.2-9.7-1.5-14.6
		C206.1,37.7,205.8,36.3,205.6,34.8z"/>
	<path fill="#CA3B8A" d="M208.1,57.9c4.8-0.1,9.6-0.6,14.4-1.1c0.1,0.1,0.2,0.2,0.3,0.3c0.3,0.5,0.5,1,0.6,1.6
		c0.8,5.3,1.8,10.5,2.6,15.8c0.1,0.5,0.2,0.9,0.1,1.4c0,0.1-0.1,0.3-0.2,0.4c-0.6,0.4-0.9-0.2-1.3-0.5c-5.1-5.2-10.3-10.3-15.3-15.7
		c-0.6-0.6-1.2-1.1-1.6-1.9c0,0,0,0,0,0C207.9,58.1,208,58,208.1,57.9z"/>
	<path fill="#F3A8B3" d="M64.1,27.7c1,1.8,2.1,3.5,3.1,5.3c3.9,7.1,7.7,14.3,11.5,21.4c0.3,0.5,0.4,1,0.6,1.5
		c-0.2,0.5-0.6,0.6-1.1,0.8c-3.5,1.1-6.9,2.4-10.5,3.4c-0.5,0.1-1,0.4-1.4,0c0,0,0,0,0,0c-0.5-4.7-0.5-9.5-1.1-14.3
		c-0.2-1.4-0.2-2.7-0.2-4.1C64.8,37.1,64.4,32.4,64.1,27.7z"/>
	<path fill="#F3A6B4" d="M65.8,60.1c-3.4-0.5-6.9-0.9-10.3-1.4c-2.8-0.4-5.6-0.9-8.4-1.3c-0.5-0.1-1-0.2-1.5-0.3
		c0.5-4.5,0.5-9.1,1.1-13.6c0.3-2.2,0.2-4.4,0.3-6.6c4.8,5.9,9.6,11.8,14.4,17.7C62.9,56.3,64.6,58,65.8,60.1z"/>
	<path fill="#E8709C" d="M133,50.8c5.9,1.2,11.8,2.4,17.7,3.6c3.4,0.7,6.7,1.3,10.1,2c0.5,0.1,1,0.2,1.5,0.2c0.1,0,0.2,0,0.3,0
		c0,0,0,0,0,0c0.1,0.3,0,0.5-0.2,0.7c-6.9,5-13.9,9.9-20.8,14.9c-0.4,0.3-0.7,0.8-1.3,0.6c-0.1,0-0.2,0-0.2,0c-0.8,0-0.8-0.6-1-1.1
		c-2-6.4-3.9-12.8-5.9-19.1c-0.2-0.5-0.3-1-0.1-1.5C133,50.9,133,50.9,133,50.8z"/>
	<path fill="#E37EA3" d="M66.3,60.1c4.4-1.1,8.7-2.7,13-4.1c0.1,0,0.2,0,0.3,0c0,0,0,0,0,0c0.5,0.4,0.6,1,0.7,1.6
		c1.3,6.3,2.5,12.6,3.9,18.8c0.1,0.3,0.1,0.6,0.1,1c-0.1,0.4-0.4,0.5-0.7,0.4c-0.4-0.1-0.6-0.4-0.9-0.6
		c-5.5-5.5-11.1-10.9-16.5-16.5C66.2,60.5,66.3,60.3,66.3,60.1z"/>
	<path fill="#D76D9D" d="M66.1,60.6c0.6,0,0.9,0.5,1.3,0.9c5.1,5.1,10.2,10.1,15.3,15.2c0.4,0.4,0.7,0.9,1.3,0.9
		c0.1-0.1,0.2-0.1,0.3,0c0,0.1,0,0.2,0,0.2c-7.7-0.3-15.5-0.5-23.2-0.5c-0.8,0-1.6-0.2-2.5-0.3C61.2,71.6,63.8,66.2,66.1,60.6z"/>
	<path fill="#DA6399" d="M133,51c2,6.7,4.1,13.3,6.1,20c0.2,0.6,0.2,1.3,0.8,1.7c0,0.1,0,0.2,0,0.2c-0.1,0-0.2,0-0.3,0
		c-10.2,2.4-20.4,4.7-30.6,7.1c-0.1,0-0.3,0-0.4,0c5.2-6.3,10.5-12.7,15.7-19c2.7-3.2,5.4-6.4,8-9.6C132.6,51.3,132.8,51.2,133,51z"
		/>
	<path fill="#A11E7D" d="M209,98.5c-0.1,0-0.2,0-0.3,0c-2.1-5.3-4.2-10.5-6.2-15.8c-0.4-1.1-1.1-2.2-1.2-3.5c0.4,0,0.8,0.1,1.1-0.3
		c1.5-0.9,3.3-0.7,4.9-0.9c5.5-0.6,11-1.2,16.5-1.8c0.5-0.1,1.1-0.2,1.6,0.1c1,0.5,0.4,1,0,1.5c-1.7,2.2-3.4,4.3-5,6.5
		c-3.4,4.3-6.7,8.6-10,12.9C210,97.8,209.6,98.3,209,98.5z"/>
	<path fill="#781E72" d="M294.1,83.9c0.1,0,0.2,0,0.3,0c0,0,0,0.1,0,0.1c0.1,0.1,0.1,0.1,0.1,0.2c0,0.1-0.1,0.1-0.1,0.1
		c-1.6,0.2-3.1,0.9-4.6,1.4c-7.5,2.4-15,4.7-22.5,7.1c-0.2,0-0.4,0-0.5,0c-2.4,0.3-4.9,0.5-7.3,0.8c-3.3,0.3-6.5,0.7-9.8,1
		c-2,0.2-4.1,0.4-6.1,0.6c0-0.1,0-0.3,0.1-0.4c3.4-2.3,6.8-4.3,10.3-6.4c4.5-2.7,8.9-5.6,13.4-8.2c0.1,0,0.3-0.1,0.4,0
		c7,0.8,14,1.7,21,2.6c1.1,0.1,2.2,0.3,3.3,0.4C292.8,83.3,293.5,83.5,294.1,83.9z"/>
	<path fill="#5A2668" d="M294.3,84.2c0-0.1,0-0.2,0-0.2c0.2,0,0.4,0,0.5,0c0.6-0.5,1.2-0.5,1.9-0.6c7.9-1.1,15.8-2.3,23.7-3.4
		c0.8-0.1,1.7-0.4,2.6,0c0,0,0,0.1,0,0.1c0,5.4,0,10.8,0,16.2c0,0.1,0,0.2,0,0.3c-0.1,0-0.2,0-0.3,0c-2.9-1-5.7-2.4-8.6-3.6
		c-6.4-2.7-12.9-5.5-19.3-8.2C294.8,84.3,294.6,84.2,294.3,84.2z"/>
	<path fill="#CF438D" d="M174.4,60.1c1.8,2.7,2.7,5.8,4.1,8.6c1.2,2.3,2,4.8,3.3,7c0.1,0.1,0.1,0.1,0.1,0.2c0,0.1-0.1,0.1-0.1,0.1
		c-0.1,0-0.2,0-0.3,0c-0.1,0.1-0.2,0.2-0.3,0.2c-0.7,0.4-1.5,0.6-2.3,0.8c-8,2-16,4-24,6c-0.6,0.2-1.2,0.4-1.9,0.3
		c-0.1,0-0.3-0.1-0.3-0.2c-0.2-0.7,0.4-1.1,0.8-1.5c5.2-5.4,10.3-10.9,15.5-16.3c1.4-1.4,2.7-2.9,4.2-4.4
		C173.6,60.6,173.9,60.2,174.4,60.1z"/>
	<path fill="#C02E86" d="M225.8,76.5c-3.2,0.3-6.3,0.7-9.5,1c-2.8,0.3-5.6,0.6-8.4,0.9c-1.9,0.2-3.7,0.4-5.6,0.6c-0.4,0-0.7,0-1.1,0
		c-0.4-0.5-0.1-1,0.1-1.4c2-5.9,3.9-11.9,5.9-17.8c0.2-0.5,0.3-0.9,0.7-1.3c0-0.1,0-0.2,0-0.3c1.8,1.3,3,3.2,4.6,4.7
		c4.1,4.1,8.2,8.3,12.3,12.4c0.4,0.4,0.8,0.7,1.1,1c0,0,0,0.1,0.1,0.1C225.9,76.5,225.8,76.5,225.8,76.5z"/>
	<path fill="#C73789" d="M207.9,58.4c-0.5,2.7-1.6,5.2-2.4,7.8c-1.3,4.3-2.8,8.5-4.2,12.8c-2.8-0.1-5.5-0.8-8.3-1.2
		c-3.7-0.6-7.4-1.2-11.1-1.8c0-0.1,0-0.2,0-0.3c1.7-0.4,2.9-1.7,4.3-2.6c3.7-2.5,7.4-5,11.1-7.6c3.4-2.3,6.7-4.7,10.1-7
		C207.5,58.5,207.7,58.5,207.9,58.4z"/>
	<path fill="#DA6C9C" d="M107.3,48.8c0.2,0.2,0.3,0.5,0.3,0.7c0,3,0.2,5.9,0.2,8.9c0.1,4.5,0.3,9.1,0.4,13.6c0.1,2.7,0.1,5.4,0.2,8
		c-2.5-0.2-5-0.4-7.5-0.6c-2.4-0.2-4.8-0.5-7.2-0.8c-3-0.4-6.1-0.3-9.1-1.1c-0.4-0.6,0.1-0.9,0.4-1.3c5.5-7,11-13.9,16.6-20.8
		c1.5-1.8,2.9-3.6,4.3-5.5C106.3,49.5,106.7,49.1,107.3,48.8L107.3,48.8z"/>
	<path fill="#EB85A6" d="M107.3,48.8c-6.5,8.1-13,16.2-19.4,24.4c-1.1,1.5-2.5,2.8-3.3,4.5c0,0-0.1,0-0.1,0s-0.1,0-0.1,0
		c-0.1,0-0.2,0-0.3,0c-1.5-7.2-3-14.4-4.4-21.7c9-2.4,18.1-4.7,27.1-7.1C106.9,48.8,107.1,48.8,107.3,48.8z"/>
	<path fill="#B43B86" d="M152.9,83.1c5.4-1.3,10.9-2.7,16.3-4c4-1,8-2.2,12.1-2.9c-1.4,1.4-3.2,2.4-4.8,3.6
		c-6.5,4.7-13,9.3-19.6,13.9c-0.1,0.1-0.2,0.2-0.2,0.3c-0.1,0-0.2,0-0.3,0c-1.4-3.5-2.8-6.9-4.1-10.4c0-0.2,0-0.4,0-0.5
		C152.5,83,152.7,83,152.9,83.1z"/>
	<path fill="#821C74" d="M323.1,79.8c-3,0.5-6,0.9-9,1.4c-5.5,0.8-11,1.6-16.5,2.4c-0.9,0.1-1.8,0.2-2.7,0.3
		c1.1-1.8,2.7-3.3,4.1-4.9c4-4.8,8-9.5,12.2-14.2c2.4-2.8,4.7-5.7,7.3-8.3c0.6,3.3,1.3,6.7,1.9,10C321.2,71,322.2,75.4,323.1,79.8z"
		/>
	<path fill="#D35091" d="M152.9,83.1c-0.2,0-0.4,0-0.6,0c-3.9-3.2-7.8-6.4-11.7-9.6c-0.3-0.2-0.4-0.5-0.5-0.8
		c6.2-4.4,12.4-8.9,18.6-13.3c1.1-0.8,2.2-1.8,3.5-2.3c0.4,0.5,0.1,1-0.1,1.4c-3,7.5-5.7,15-8.6,22.5c-0.2,0.6-0.7,1.1-0.7,1.9
		C152.9,82.9,152.9,83,152.9,83.1z"/>
	<path fill="#891976" d="M243.5,94.9c0,0.1,0,0.2,0,0.3c-0.1,0-0.2,0-0.3,0.1c-5.8,1.6-11.6,3.3-17.4,4.9c-0.2,0-0.4,0-0.6,0
		c-0.5-0.6-0.4-1.3-0.4-2c0.3-5.1,0.5-10.2,0.5-15.3c0-1.8,0.2-3.6,0.5-5.4c0.6-0.8,1.1-0.3,1.4,0.2c3.4,3.6,6.7,7.2,10.1,10.8
		c2,2.1,3.9,4.4,6.1,6.3C243.5,94.8,243.5,94.9,243.5,94.9z"/>
	<path fill="#8C1876" d="M226.4,77.1c-0.5,1.5-0.5,3-0.5,4.5c0,4.9-0.5,9.8-0.4,14.7c0,1.3-0.3,2.5-0.2,3.8c-3.9,0-7.7-0.6-11.6-1
		c-1.6-0.2-3.2-0.2-4.7-0.6c5-6.5,10-13,15.1-19.4c0.6-0.8,1.5-1.5,1.8-2.5c0,0,0,0,0,0C226.3,76.5,226.4,76.7,226.4,77.1z"/>
	<path fill="#DA5794" d="M152.9,82.9c-0.3-1.7,0.8-3,1.3-4.4c2.2-6.1,4.6-12.2,6.9-18.3c0.4-1,1-1.9,1.2-3c0.1-0.2,0.2-0.4,0.3-0.5
		c2.1,0.9,4.3,1.2,6.5,1.8c1.8,0.5,3.6,1,5.4,1.5c0,0.1,0,0.2,0,0.3c-1.5,1.9-3.4,3.5-5,5.3c-2.3,2.7-5,5.1-7.4,7.7
		C159,76.3,155.9,79.6,152.9,82.9z"/>
	<path fill="#971679" d="M294.1,83.9c-6.1-0.8-12.3-1.6-18.4-2.4c-2.5-0.3-5-0.6-7.5-0.9c-0.3,0-0.6-0.2-0.9-0.3
		c-0.6-1.6-0.2-3.2,0-4.8c0.5-5.2,0.9-10.5,1.3-15.8c0.1-0.9,0.1-1.9,0.7-2.7c2,1.5,3.5,3.6,5.2,5.4c1.4,1.5,2.9,3,4.3,4.6
		c3.7,4.1,7.6,8,11.2,12.1C291.3,80.8,293.1,82,294.1,83.9z"/>
	<path fill="#A7207E" d="M269.2,57.1c-0.4,4.2-0.7,8.3-1.1,12.5c-0.2,2.6-0.5,5.2-0.6,7.9c0,1-0.3,2-0.3,3c0,0,0,0,0,0
		c-1.1,0.1-1.8-0.7-2.5-1.2c-3.3-2.3-6.7-4.3-9.9-6.6c-0.3-0.2-0.9-0.3-0.8-1c2.1-2.3,4.3-4.4,6.6-6.5c2.6-2.3,5-4.9,7.4-7.3
		c0.4-0.4,0.7-0.7,1.1-1C269.2,56.9,269.2,57,269.2,57.1z"/>
	<path fill="#8F1677" d="M254,71.6c4.4,2.9,8.8,5.9,13.3,8.8c-1.9,1.6-4.2,2.7-6.3,4.1c-5.4,3.4-10.8,6.6-16.2,9.9
		c-0.4,0.2-0.8,0.5-1.2,0.6c0,0,0,0,0,0c-0.2-1,0.5-1.8,0.8-2.7c2.8-6.3,5.5-12.5,8.2-18.8c0.3-0.7,0.5-1.4,1.1-1.8c0,0,0,0,0,0
		C253.8,71.6,253.9,71.6,254,71.6z"/>
	<path fill="#9B167A" d="M253.7,71.6c-1.6,3.7-3.1,7.3-4.8,11c-1.8,4.1-3.7,8.2-5.5,12.3c-0.8-0.1-1.2-0.8-1.7-1.3
		c-1.7-1.8-3.3-3.6-5-5.4c-3.5-3.7-7-7.4-10.4-11.1c-0.1-0.3-0.3-0.4-0.5-0.5c0-0.1,0-0.2,0-0.3c0,0,0,0,0,0c1.2-0.7,2.7-0.6,4-0.9
		c7.1-1.3,14.2-2.5,21.3-3.7c0.7-0.1,1.4,0,2-0.1C253.4,71.6,253.6,71.6,253.7,71.6z"/>
	<path fill="#BB2B84" d="M253.2,71.6c-2.3,0.7-4.6,0.9-7,1.3c-5.1,0.9-10.2,1.8-15.2,2.6c-1.7,0.3-3.4,0.8-5.2,0.7
		c-0.3-3.3-1-6.6-1.5-9.9c-0.5-3.1-1-6.2-1.5-9.3c8.4,4,16.8,8.1,25.2,12.1C249.7,70,251.4,70.8,253.2,71.6z"/>
</g>
</svg>
